<svg width="89" height="45" viewBox="0 0 89 45" fill="none" xmlns="http://www.w3.org/2000/svg">
<path d="M0.312 45V0.199997H22.2C27.832 0.199997 32.056 1.26666 34.872 3.4C37.7307 5.53333 39.16 8.34933 39.16 11.848C39.16 14.1947 38.584 16.2427 37.432 17.992C36.28 19.6987 34.7013 21.0213 32.696 21.96C30.6907 22.8987 28.3867 23.368 25.784 23.368L27 20.744C29.816 20.744 32.312 21.2133 34.488 22.152C36.664 23.048 38.3493 24.392 39.544 26.184C40.7813 27.976 41.4 30.1733 41.4 32.776C41.4 36.616 39.8853 39.624 36.856 41.8C33.8267 43.9333 29.368 45 23.48 45H0.312ZM10.616 37.192H22.712C25.4 37.192 27.4267 36.7653 28.792 35.912C30.2 35.016 30.904 33.608 30.904 31.688C30.904 29.8107 30.2 28.424 28.792 27.528C27.4267 26.5893 25.4 26.12 22.712 26.12H9.848V18.568H20.92C23.4373 18.568 25.3573 18.1413 26.68 17.288C28.0453 16.392 28.728 15.048 28.728 13.256C28.728 11.5067 28.0453 10.2053 26.68 9.352C25.3573 8.456 23.4373 8.008 20.92 8.008H10.616V37.192ZM49.2495 45V0.199997H68.6415C72.6522 0.199997 76.1082 0.861331 79.0095 2.184C81.9108 3.464 84.1508 5.32 85.7295 7.752C87.3082 10.184 88.0975 13.0853 88.0975 16.456C88.0975 19.784 87.3082 22.664 85.7295 25.096C84.1508 27.4853 81.9108 29.32 79.0095 30.6C76.1082 31.88 72.6522 32.52 68.6415 32.52H55.0095L59.6175 27.976V45H49.2495ZM77.7295 45L66.5295 28.744H77.6015L88.9295 45H77.7295ZM59.6175 29.128L55.0095 24.264H68.0655C71.2655 24.264 73.6548 23.5813 75.2335 22.216C76.8122 20.808 77.6015 18.888 77.6015 16.456C77.6015 13.9813 76.8122 12.0613 75.2335 10.696C73.6548 9.33067 71.2655 8.648 68.0655 8.648H55.0095L59.6175 3.72V29.128Z" fill="#F5F5F5"/>
</svg>
